<svg id="Группа_2" data-name="Группа 2" xmlns="http://www.w3.org/2000/svg" width="25" height="25" viewBox="0 0 25 25">
  <defs>
    <style>
      .cls-1 {
        fill: #415da6;
      }

      .cls-2 {
        fill: #fff;
        fill-rule: evenodd;
      }
    </style>
  </defs>
  <rect id="Rectangle_2_copy_2" data-name="Rectangle 2 copy 2" class="cls-1" width="25" height="25" rx="12.286" ry="12.286"/>
  <path id="icon_facebook_copy" data-name="icon facebook copy" class="cls-2" d="M1324.71,431.651a5.871,5.871,0,0,0-2.03-.151,0.9,0.9,0,0,0-.8.72h0.03l-0.03.021v1.889h2.96l-0.22,2.217h-2.74V444h-3.47v-7.653h-1.82V434.13h1.82v-1.91h0.01a3.147,3.147,0,0,1,.68-2.165,3.463,3.463,0,0,1,2.42-1.067s1.02-.037,1.82.022a15.566,15.566,0,0,1,1.84.248Z" transform="translate(-1308 -424)"/>
</svg>
