<svg id="Группа_1" data-name="Группа 1" xmlns="http://www.w3.org/2000/svg" width="25" height="25" viewBox="0 0 25 25">
  <defs>
    <style>
      .cls-1 {
        fill: #6084a8;
      }

      .cls-2 {
        fill: #fff;
        fill-rule: evenodd;
      }
    </style>
  </defs>
  <rect id="Rectangle_2_copy_4" data-name="Rectangle 2 copy 4" class="cls-1" width="25" height="25" rx="12.5" ry="12.5"/>
  <path id="Shape_F_3_copy_4" data-name="Shape F_3 copy 4" class="cls-2" d="M1353.21,441.408h0.95a0.85,0.85,0,0,0,.44-0.182,0.68,0.68,0,0,0,.13-0.4s-0.02-1.235.57-1.414,1.34,1.18,2.14,1.7a1.5,1.5,0,0,0,1.06.294h2.13s1.11-.08.58-0.917a6.858,6.858,0,0,0-1.58-1.749c-1.34-1.184-1.16-.993.45-3.039,0.98-1.248,1.37-2.009,1.25-2.336a0.985,0.985,0,0,0-.83-0.256h-2.41a0.607,0.607,0,0,0-.31.059,0.624,0.624,0,0,0-.21.265,13.073,13.073,0,0,1-.88,1.8c-1.07,1.731-1.5,1.822-1.67,1.715-0.41-.251-0.31-1.006-0.31-1.543,0-1.679.27-2.378-.52-2.559a4.241,4.241,0,0,0-1.12-.107,5.42,5.42,0,0,0-1.99.195c-0.27.127-.48,0.412-0.35,0.428a1.1,1.1,0,0,1,.71.339,2.164,2.164,0,0,1,.23,1.037s0.14,1.975-.33,2.22c-0.32.169-.76-0.175-1.72-1.746a14.64,14.64,0,0,1-.85-1.71,0.661,0.661,0,0,0-.2-0.256,1.016,1.016,0,0,0-.37-0.142h-2.28a0.774,0.774,0,0,0-.46.151,0.428,0.428,0,0,0-.01.388,24.413,24.413,0,0,0,3.8,6.024A5.671,5.671,0,0,0,1353.21,441.408Z" transform="translate(-1341 -424)"/>
</svg>
